<svg width="30" height="56" viewBox="0 0 30 56" fill="none" xmlns="http://www.w3.org/2000/svg">
<g clip-path="url(#clip0_114_4)">
<path d="M20.76 23.74C20.76 23.619 20.652 23.52 20.52 23.52H17.4C17.268 23.52 17.16 23.421 17.16 23.3V20.44C17.16 20.319 17.052 20.22 16.92 20.22H13.08C12.948 20.22 12.84 20.319 12.84 20.44V23.3C12.84 23.421 12.732 23.52 12.6 23.52H9.48C9.348 23.52 9.24 23.619 9.24 23.74V27.26C9.24 27.381 9.348 27.48 9.48 27.48H12.6C12.732 27.48 12.84 27.579 12.84 27.7V30.56C12.84 30.681 12.948 30.78 13.08 30.78H16.92C17.052 30.78 17.16 30.681 17.16 30.56V27.7C17.16 27.579 17.268 27.48 17.4 27.48H20.52C20.652 27.48 20.76 27.381 20.76 27.26V23.74Z" fill="#9747FF"/>
</g>
<path d="M25.5 14.6921C25.5 21.7049 20.9854 6.69214 15.3048 6.69214C9.62411 6.69214 5.01904 21.7049 5.01904 14.6921C5.01904 7.67935 9.62411 0.692139 15.3048 0.692139C20.9854 0.692139 25.5 7.67935 25.5 14.6921Z" fill="black"/>
<path d="M2.34375 25.8057C2.34375 23.5938 2.66602 21.5283 3.31055 19.6094C3.96973 17.6904 4.88525 16.0352 6.05713 14.6436C8.56201 11.6992 11.7334 10.2271 15.5713 10.2271C19.248 10.2271 22.1924 11.6113 24.4043 14.3799C26.5576 17.0752 27.6343 20.6421 27.6343 25.0806C27.6343 30.0903 26.3306 33.9941 23.7231 36.792C21.394 39.2969 18.4058 40.5493 14.7583 40.5493C11.228 40.5493 8.28369 39.187 5.92529 36.4624C3.5376 33.6938 2.34375 30.1416 2.34375 25.8057ZM10.0342 32.749C10.6787 33.584 11.4478 34.2358 12.3413 34.7046C13.2349 35.1587 14.1431 35.3857 15.0659 35.3857C16.0034 35.3857 16.875 35.1807 17.6807 34.7705C18.4863 34.3604 19.2114 33.7451 19.856 32.9248C21.3062 31.0498 22.0312 28.5962 22.0312 25.564C22.0312 22.4585 21.416 19.9756 20.1855 18.1152C18.9404 16.2842 17.2559 15.3687 15.1318 15.3687C12.9932 15.3687 11.2646 16.3208 9.94629 18.2251C8.61328 20.144 7.94678 22.627 7.94678 25.6738C7.94678 28.5889 8.64258 30.9473 10.0342 32.749Z" fill="black"/>
<defs>
<clipPath id="clip0_114_4">
<rect width="12" height="11" fill="white" transform="translate(9 20)"/>
</clipPath>
</defs>
</svg>
