<svg width="44" height="44" viewBox="0 0 44 44" fill="none" xmlns="http://www.w3.org/2000/svg">
<path d="M17.4167 29.3333C14.0861 29.3333 11.2677 28.1796 8.96133 25.872C6.655 23.5644 5.50122 20.746 5.5 17.4167C5.49878 14.0873 6.65256 11.2689 8.96133 8.96133C11.2701 6.65378 14.0886 5.5 17.4167 5.5C20.7448 5.5 23.5638 6.65378 25.8738 8.96133C28.1838 11.2689 29.337 14.0873 29.3333 17.4167C29.3333 18.7611 29.1194 20.0292 28.6917 21.2208C28.2639 22.4125 27.6833 23.4667 26.95 24.3833L37.2167 34.65C37.5528 34.9861 37.7208 35.4139 37.7208 35.9333C37.7208 36.4528 37.5528 36.8806 37.2167 37.2167C36.8806 37.5528 36.4528 37.7208 35.9333 37.7208C35.4139 37.7208 34.9861 37.5528 34.65 37.2167L24.3833 26.95C23.4667 27.6833 22.4125 28.2639 21.2208 28.6917C20.0292 29.1194 18.7611 29.3333 17.4167 29.3333ZM17.4167 25.6667C19.7083 25.6667 21.6566 24.8649 23.2613 23.2613C24.8661 21.6578 25.6679 19.7096 25.6667 17.4167C25.6654 15.1238 24.8637 13.1762 23.2613 11.5738C21.659 9.9715 19.7108 9.16911 17.4167 9.16667C15.1226 9.16422 13.1749 9.96661 11.5738 11.5738C9.97272 13.1811 9.17033 15.1287 9.16667 17.4167C9.163 19.7047 9.96539 21.6529 11.5738 23.2613C13.1823 24.8698 15.1299 25.6716 17.4167 25.6667Z" fill="black"/>
</svg>
